PathFileType	4	(X/Y/Z)	3_1_14_p1_0-203_filt_butterworth.trc
DataRate	CameraRate	NumFrames	NumMarkers	Units	OrigDataRate	OrigDataStartFrame	OrigNumFrames
60.0	60.0	4	27	m	60.0	0	203
Frame#	Time	RHip			RKnee			RAnkle			RBigToe			RSmallToe			RHeel			LHip			LKnee			LAnkle			LBigToe			LSmallToe			LHeel			Neck			Head			Nose			RShoulder			RElbow			RWrist			RThumb			RIndex			RPinky			LShoulder			LElbow			LWrist			LThumb			LIndex			LPinky			
		X1	Y1	Z1	X2	Y2	Z2	X3	Y3	Z3	X4	Y4	Z4	X5	Y5	Z5	X6	Y6	Z6	X7	Y7	Z7	X8	Y8	Z8	X9	Y9	Z9	X10	Y10	Z10	X11	Y11	Z11	X12	Y12	Z12	X13	Y13	Z13	X14	Y14	Z14	X15	Y15	Z15	X16	Y16	Z16	X17	Y17	Z17	X18	Y18	Z18	X19	Y19	Z19	X20	Y20	Z20	X21	Y21	Z21	X22	Y22	Z22	X23	Y23	Z23	X24	Y24	Z24	X25	Y25	Z25	X26	Y26	Z26	X27	Y27	Z27	
0	0.0	0.21346014215655654	0.3842220782306087	0.9687884853755635	0.19753325540041813	0.45180694969073854	1.36326954706909	0.15459699543187833	0.5198931615407452	1.790049328684587	0.1706435443443523	0.2939333012438022	1.8126889750576562	0.22830716094419695	0.3597058538425706	1.8342426380729622	0.14598759391053612	0.5322465652559185	1.836250951977857	-0.010756383844572304	0.354701647032194	0.9423528903522674	-0.0016089871225609558	0.41491308588879844	1.3506292815770022	0.007983527883172364	0.47077309813013046	1.7680818407921841	0.014412413837104093	0.2941866378621855	1.8378392814019828	-0.04785447374574328	0.301917212043812	1.7999820468272694	0.017930549118356866	0.5335772719314373	1.848993472915546	0.09913494656145057	0.370781175324822	0.35609068995554405	0.12325773174235483	0.33851678732670076	0.10434917183790209	0.13071616342259185	0.27837427004183296	0.2469250091283276	0.26198653671811356	0.38394585360940436	0.451391067091435	0.29156246590872226	0.26340280546285966	0.7055721694444745	0.1381606662822846	0.08765309410692328	0.8042049832029111	0.06115109145374918	0.007739743498548883	0.8022174692696885	0.046766393773244715	0.04474192420473887	0.8526711817872307	0.03879333924677243	0.07322583695070112	0.8830695488399337	-0.05774757370314927	0.3808421465168788	0.44736970303243107	-0.07432294682012298	0.23626347947044307	0.6805792837876308	0.03462795180334991	0.1099954765435165	0.8699175097033668	0.11355010273847599	0.025667955589368543	0.86194742285353	0.10517446008149145	0.06018111905955419	0.9372512137191735	0.08336534092454213	0.08194352744674867	0.9699946571872988
1	0.0166666666666666	0.2133644663683908	0.3843990989842355	0.968823979016707	0.20003646597694694	0.4531120127828132	1.3636156225324172	0.15466464222660778	0.5196737887390072	1.790972284368971	0.17070633690592457	0.2941487167248075	1.8130000701724236	0.23042385871282822	0.36181589902211314	1.8365421409395537	0.145184594142253	0.5323135721703126	1.8388955870307806	-0.010817768170527192	0.3548711389164622	0.9423930422448219	0.00022131798371649954	0.4158254716451132	1.350863569969706	0.007894956236682894	0.4709424120787399	1.7670402602831894	0.008490591578368746	0.3008598138669346	1.8422857096171243	-0.04685992296180583	0.30949370888765004	1.8045734980881405	0.0196410087015954	0.5367826511454515	1.851058125919998	0.09910544323693164	0.37079034224469803	0.3560717339520171	0.12487351670450826	0.334431405697561	0.10433996717674626	0.13080969151956967	0.27814237035335304	0.24884874977502555	0.2597969213884528	0.3833156790640509	0.4535970402665738	0.28864235453203524	0.271198626772618	0.7074417041143182	0.14259650430563003	0.08745262287396265	0.8033045211857512	0.06133095347758078	0.004886855359346945	0.8072798060712469	0.04899991456133579	0.033831053212074885	0.8509868741999318	0.04352436570471011	0.06544919203251495	0.8815865083494749	-0.058831079648730265	0.39036547957825274	0.4485098622324212	-0.07395866676718026	0.23763044659709587	0.681317655289793	0.03654945817240746	0.11085263838039698	0.8700301864296731	0.12019108917570015	0.03563772665588882	0.8692474202704455	0.10764685520226215	0.0566271952686733	0.9382700722421825	0.08506622560988507	0.08191330096979957	0.9681782051169066
2	0.0333333333333333	0.21334230744793545	0.38439776942866416	0.9687852040894148	0.201550339759493	0.4539559547708849	1.3632195918093049	0.15476716863429246	0.5198012349055772	1.7920155390169212	0.17075152813272282	0.294306094201824	1.8131140281157136	0.23258363793064907	0.3638725002862646	1.839198443738396	0.14473553951612414	0.5322434137944981	1.8407013941595975	-0.010829366072844508	0.3549066794492704	0.9427845009879622	0.0013836948048365143	0.4161367402134502	1.3504014694344841	0.007913968990741723	0.47132710392370414	1.7670861591831275	0.005058444519863522	0.3048827357568412	1.8449708772761788	-0.046252406697708824	0.31422090038990047	1.8071759688098261	0.020957460230844133	0.5380179416710769	1.8519122930995016	0.09907314425791783	0.3708061499382484	0.35606254991284214	0.126055547293313	0.3314588806649028	0.10430218104468164	0.13087125651837925	0.27800611899768407	0.2500221304162614	0.2584305323368679	0.38274543605322486	0.45478385547575395	0.28687769420473225	0.2759159452659258	0.7085610570592951	0.1452104718674635	0.08731033888240287	0.8031741748818259	0.061283178100319934	0.003568791860854171	0.8120424494130491	0.050139322797262534	0.027048649886160323	0.8506098760194396	0.04656010253839611	0.059620888123307555	0.8805940775448645	-0.05963221842761321	0.3954236377879021	0.44913234071158326	-0.07375384123893164	0.23813543620992875	0.6816171629961748	0.03790010504793085	0.11129706832475958	0.8699796737751511	0.12398631223072737	0.04116091806802249	0.8738423679405805	0.10973134488355812	0.053224315008773726	0.9385672536285469	0.08664542318816232	0.08195232517165255	0.9670583134657478
3	0.05	0.213378634032301	0.3841307714425935	0.9686606351843858	0.20189554149880365	0.45418306653963675	1.3620403453225882	0.15503293274564023	0.5202408252047563	1.793980761695772	0.17074826342354876	0.29438749018121224	1.8129781271644232	0.23396012363171292	0.36530095773274285	1.8412398757895108	0.1446947181382724	0.5320880147962362	1.841734049818131	-0.010769061892766711	0.35473748969056845	0.9436762128371246	0.0018569143434807775	0.41600267748824826	1.3495484997788032	0.00797630453031051	0.4716685277109248	1.7678058558899634	0.004182320368995381	0.3061642078971239	1.8458197460009798	-0.04607830612561937	0.31579615666071303	1.8069983780980725	0.021427755355460994	0.5365527220823763	1.8510756847942809	0.09901289439963376	0.37081149210536324	0.3560661954827122	0.12694120833019207	0.3291707958339398	0.10428808867979644	0.13089714725938167	0.27796763823833204	0.2503832123877906	0.25796074628939314	0.3822556130680571	0.4548837676844201	0.2863855781771694	0.2772751018984307	0.7088360589388947	0.14589526515939186	0.08723930602707973	0.8035581266359125	0.06137449068835041	0.0033948742999631966	0.8159132409070916	0.05030222520463311	0.023963314017919082	0.8512398737897942	0.047804791693645224	0.05547435441234714	0.8800065616507036	-0.06020723252606422	0.39497398336367995	0.44909105264361804	-0.07354751653308257	0.23913842117844397	0.6814760233526207	0.0389308748605501	0.11140974049994612	0.8697319445843067	0.1244271111266817	0.04138560776515593	0.8758960846543307	0.11094770474711017	0.05077210142369823	0.9384906487620799	0.08773533547986874	0.08210556679392822	0.9664828667425259
